<svg width="20" height="24" viewBox="0 0 20 24" fill="none" xmlns="http://www.w3.org/2000/svg">
<path d="M10 17.834L14.6667 13.1673L13.0333 11.534L11.1667 13.3423V8.50065H8.83334V13.3423L6.96667 11.534L5.33334 13.1673L10 17.834ZM3.00001 23.6673C2.35834 23.6673 1.80884 23.4387 1.35151 22.9813C0.894174 22.524 0.665896 21.9749 0.666674 21.334V7.33398L7.66667 0.333984H17C17.6417 0.333984 18.1912 0.562651 18.6485 1.01998C19.1058 1.47732 19.3341 2.02643 19.3333 2.66732V21.334C19.3333 21.9757 19.1047 22.5252 18.6473 22.9825C18.19 23.4398 17.6409 23.6681 17 23.6673H3.00001Z" fill="#676767"/>
</svg>
