<svg width="16" height="20" viewBox="0 0 16 20" fill="none" xmlns="http://www.w3.org/2000/svg">
<path d="M14.875 0.384766H3.35938C3.26484 0.384766 3.1875 0.462109 3.1875 0.556641V1.75977C3.1875 1.8543 3.26484 1.93164 3.35938 1.93164H14.0156V16.7129C14.0156 16.8074 14.093 16.8848 14.1875 16.8848H15.3906C15.4852 16.8848 15.5625 16.8074 15.5625 16.7129V1.07227C15.5625 0.691992 15.2553 0.384766 14.875 0.384766ZM12.125 3.13477H1.125C0.744727 3.13477 0.4375 3.44199 0.4375 3.82227V15.224C0.4375 15.4066 0.510547 15.5807 0.639453 15.7096L4.3627 19.4328C4.40996 19.4801 4.46367 19.5187 4.52168 19.551V19.5918H4.61191C4.68711 19.6197 4.7666 19.6348 4.84824 19.6348H12.125C12.5053 19.6348 12.8125 19.3275 12.8125 18.9473V3.82227C12.8125 3.44199 12.5053 3.13477 12.125 3.13477ZM4.51953 17.4047L2.66973 15.5527H4.51953V17.4047ZM11.2656 18.0879H5.89453V15.0371C5.89453 14.5623 5.50996 14.1777 5.03516 14.1777H1.98438V4.68164H11.2656V18.0879Z" fill="#A3A3A3"/>
</svg>
