<svg width="32" height="31" viewBox="0 0 32 31" fill="none" xmlns="http://www.w3.org/2000/svg">
<g clip-path="url(#clip0_2864_5)">
<path d="M26.9293 0.0410156H4.18962C1.93562 0.0410156 0.108398 1.88965 0.108398 4.17005V26.7956C0.108398 29.0761 1.93562 30.9247 4.18962 30.9247H26.9293C29.1833 30.9247 31.0105 29.076 31.0105 26.7956V4.17005C31.0105 1.88965 29.1833 0.0410156 26.9293 0.0410156Z" fill="#373C9B"/>
<path d="M16.9702 18.9536V12.2658C16.9702 9.90114 15.2752 7.77646 12.9256 7.48935C10.1204 7.14891 7.72565 9.33716 7.72565 12.073V25.627C7.72565 25.6475 7.71334 25.6639 7.69282 25.6639C7.39116 25.6721 5.13184 25.7275 5.13184 25.6639V12.3191C5.13184 8.54758 7.9247 5.23137 11.6841 4.89503C15.9606 4.51152 19.564 7.88106 19.564 12.075L19.5661 18.97" fill="white"/>
<path d="M13.7834 13.6576V18.7006C13.7834 21.0652 15.4784 23.1899 17.828 23.477C20.6332 23.8175 23.0279 21.6292 23.0279 18.8934V5.03583C23.0279 5.01533 23.0402 4.99892 23.0608 4.99892C23.3624 4.99072 25.6217 4.93534 25.6217 4.99892V18.6493C25.6217 22.4208 22.8289 25.7371 19.0695 26.0734C14.793 26.4569 11.1896 23.0874 11.1896 18.8934L11.1875 13.6412" fill="white"/>
</g>
<defs>
<clipPath id="clip0_2864_5">
<rect width="32" height="30.9677" fill="white"/>
</clipPath>
</defs>
</svg>
