<svg width="135" height="30" viewBox="0 0 135 30" fill="none" xmlns="http://www.w3.org/2000/svg">
<g clip-path="url(#clip0_1988_1341)">
<path d="M51.9546 16.9638C52.7853 16.1595 53.2007 15.1889 53.2007 14.0522C53.2007 12.9155 52.7853 11.9449 51.9546 11.1406C51.1238 10.3364 50.1214 9.9342 48.9473 9.9342C47.7732 9.9342 46.7708 10.3364 45.94 11.1406C45.1093 11.9449 44.6939 12.9155 44.6939 14.0522C44.6939 15.1889 45.1093 16.1595 45.94 16.9638C46.7708 17.7681 47.7732 18.1702 48.9473 18.1702C50.1214 18.1702 51.1238 17.7681 51.9546 16.9638ZM41.5039 14.0522C41.5039 12.0575 42.2294 10.3578 43.6804 8.95296C45.1315 7.54812 46.8871 6.8457 48.9473 6.8457C51.0075 6.8457 52.7632 7.54812 54.2142 8.95296C55.6652 10.3578 56.3907 12.0575 56.3907 14.0522C56.3907 16.0469 55.6652 17.7466 54.2142 19.1515C52.7632 20.5563 51.0075 21.2587 48.9473 21.2587C47.3412 21.2587 45.9234 20.8351 44.6939 19.9879V25.3767H41.5039V14.0522Z" fill="#1E2551"/>
<path d="M58.5174 14.0522C58.5174 12.0575 59.2429 10.3578 60.6939 8.95296C62.145 7.54812 63.9006 6.8457 65.9608 6.8457V9.9342C64.7867 9.9342 63.7843 10.3364 62.9536 11.1406C62.1228 11.9449 61.7074 12.9155 61.7074 14.0522V21.2587H58.5174V14.0522Z" fill="#1E2551"/>
<path d="M75.5309 21.2587C73.4707 21.2587 71.7151 20.5563 70.264 19.1515C68.813 17.7466 68.0875 16.0469 68.0875 14.0522C68.0875 12.0575 68.813 10.3578 70.264 8.95296C71.7151 7.54812 73.4707 6.8457 75.5309 6.8457C77.5911 6.8457 79.3468 7.54812 80.7978 8.95296C82.2488 10.3578 82.9743 12.0575 82.9743 14.0522C82.9743 16.0469 82.2488 17.7466 80.7978 19.1515C79.3468 20.5563 77.5911 21.2587 75.5309 21.2587ZM75.5309 18.1702C76.705 18.1702 77.7074 17.7681 78.5382 16.9638C79.3689 16.1595 79.7843 15.1889 79.7843 14.0522C79.7843 12.9155 79.3689 11.9449 78.5382 11.1406C77.7074 10.3364 76.705 9.9342 75.5309 9.9342C74.3568 9.9342 73.3544 10.3364 72.5236 11.1406C71.6929 11.9449 71.2775 12.9155 71.2775 14.0522C71.2775 15.1889 71.6929 16.1595 72.5236 16.9638C73.3544 17.7681 74.3568 18.1702 75.5309 18.1702Z" fill="#1E2551"/>
<path d="M95.5517 16.9638C96.3824 16.1595 96.7978 15.1889 96.7978 14.0522C96.7978 12.9155 96.3824 11.9449 95.5517 11.1406C94.721 10.3364 93.7185 9.9342 92.5444 9.9342C91.3703 9.9342 90.3679 10.3364 89.5372 11.1406C88.7064 11.9449 88.291 12.9155 88.291 14.0522C88.291 15.1889 88.7064 16.1595 89.5372 16.9638C90.3679 17.7681 91.3703 18.1702 92.5444 18.1702C93.7185 18.1702 94.721 17.7681 95.5517 16.9638ZM85.101 14.0522C85.101 12.0575 85.8265 10.3578 87.2775 8.95296C88.7286 7.54812 90.4842 6.8457 92.5444 6.8457C94.6047 6.8457 96.3603 7.54812 97.8113 8.95296C99.2623 10.3578 99.9878 12.0575 99.9878 14.0522C99.9878 16.0469 99.2623 17.7466 97.8113 19.1515C96.3603 20.5563 94.6047 21.2587 92.5444 21.2587C90.9383 21.2587 89.5205 20.8351 88.291 19.9879V25.3767H85.101V14.0522Z" fill="#1E2551"/>
<path d="M112.565 16.9638C113.396 16.1595 113.811 15.1889 113.811 14.0522C113.811 12.9155 113.396 11.9449 112.565 11.1406C111.734 10.3364 110.732 9.9342 109.558 9.9342C108.384 9.9342 107.381 10.3364 106.551 11.1406C105.72 11.9449 105.305 12.9155 105.305 14.0522C105.305 15.1889 105.72 16.1595 106.551 16.9638C107.381 17.7681 108.384 18.1702 109.558 18.1702C110.732 18.1702 111.734 17.7681 112.565 16.9638ZM102.115 14.0522C102.115 12.0575 102.84 10.3578 104.291 8.95296C105.742 7.54812 107.498 6.8457 109.558 6.8457C111.618 6.8457 113.374 7.54812 114.825 8.95296C116.276 10.3578 117.001 12.0575 117.001 14.0522C117.001 16.0469 116.276 17.7466 114.825 19.1515C113.374 20.5563 111.618 21.2587 109.558 21.2587C107.952 21.2587 106.534 20.8351 105.305 19.9879V25.3767H102.115V14.0522Z" fill="#1E2551"/>
<path d="M122.318 14.0522C122.318 15.1889 122.733 16.1595 123.564 16.9638C124.395 17.7681 125.397 18.1702 126.571 18.1702C127.746 18.1702 128.748 17.7681 129.579 16.9638C130.409 16.1595 130.825 15.1889 130.825 14.0522V6.8457H134.015V14.0522C134.015 16.0469 133.289 17.7466 131.838 19.1515C130.387 20.5563 128.632 21.2587 126.571 21.2587C124.511 21.2587 122.756 20.5563 121.305 19.1515C119.854 17.7466 119.128 16.0469 119.128 14.0522V6.8457H122.318V14.0522Z" fill="#1E2551"/>
<path d="M27.317 0.0400391H4.57731C2.32332 0.0400391 0.496094 1.8309 0.496094 4.04004V25.9586C0.496094 28.1677 2.32332 29.9586 4.57731 29.9586H27.317C29.571 29.9586 31.3982 28.1677 31.3982 25.9586V4.04004C31.3982 1.8309 29.571 0.0400391 27.317 0.0400391Z" fill="#373C9B"/>
<path d="M17.3579 18.3619V11.8831C17.3579 9.5924 15.6629 7.53412 13.3133 7.25598C10.5081 6.92617 8.11334 9.04604 8.11334 11.6964V24.8268C8.11334 24.8467 8.10103 24.8626 8.08051 24.8626C7.77886 24.8705 5.51953 24.9242 5.51953 24.8626V11.9348C5.51953 8.28114 8.3124 5.06856 12.0718 4.74273C16.3483 4.37121 19.9517 7.63545 19.9517 11.6984L19.9538 18.3778" fill="white"/>
<path d="M14.1711 13.2318V18.1172C14.1711 20.4079 15.8661 22.4662 18.2157 22.7443C21.0209 23.0741 23.4156 20.9543 23.4156 18.3039V4.87944C23.4156 4.85957 23.4279 4.84368 23.4485 4.84368C23.7501 4.83573 26.0094 4.78209 26.0094 4.84368V18.0675C26.0094 21.7212 23.2166 24.9337 19.4572 25.2596C15.1807 25.6311 11.5772 22.3669 11.5772 18.3039L11.5752 13.2159" fill="white"/>
</g>
<defs>
<clipPath id="clip0_1988_1341">
<rect width="134" height="30" fill="white" transform="translate(0.5)"/>
</clipPath>
</defs>
</svg>
