<svg width="18" height="19" viewBox="0 0 18 19" fill="none" xmlns="http://www.w3.org/2000/svg">
<path d="M17.25 3.375H14.25V1.5C14.25 0.672656 13.5773 0 12.75 0H5.25C4.42266 0 3.75 0.672656 3.75 1.5V3.375H0.75C0.335156 3.375 0 3.71016 0 4.125V4.875C0 4.97813 0.084375 5.0625 0.1875 5.0625H1.60312L2.18203 17.3203C2.21953 18.1195 2.88047 18.75 3.67969 18.75H14.3203C15.1219 18.75 15.7805 18.1219 15.818 17.3203L16.3969 5.0625H17.8125C17.9156 5.0625 18 4.97813 18 4.875V4.125C18 3.71016 17.6648 3.375 17.25 3.375ZM12.5625 3.375H5.4375V1.6875H12.5625V3.375Z" fill="#A3A3A3"/>
</svg>
