<svg width="15" height="17" viewBox="0 0 15 17" fill="none" xmlns="http://www.w3.org/2000/svg">
<path d="M8.46801 14.8971L14.9646 8.40055L14.0365 7.47247L7.53993 13.969C6.85934 14.6496 6.03438 14.9899 5.06506 14.9899C4.09573 14.9899 3.27077 14.6496 2.59018 13.969C1.90959 13.2884 1.5693 12.4635 1.5693 11.4941C1.5693 10.5248 1.90959 9.69986 2.59018 9.01927L9.08673 2.52272C9.51983 2.08962 10.0354 1.87307 10.6335 1.87307C11.2316 1.87307 11.7472 2.08962 12.1803 2.52273C12.6134 2.95583 12.83 3.47143 12.83 4.06952C12.83 4.66762 12.6134 5.18321 12.1803 5.61632L6.30249 11.4941C6.12719 11.6694 5.92095 11.7569 5.68378 11.7565C5.4466 11.7569 5.24036 11.6694 5.06506 11.4941C4.88975 11.3188 4.8021 11.1124 4.8021 10.8748C4.8021 10.638 4.88975 10.432 5.06506 10.2567L10.9429 4.37888L10.0148 3.4508L4.13698 9.32863C3.70388 9.76173 3.48733 10.2773 3.48733 10.8754C3.48733 11.4735 3.70388 11.9891 4.13698 12.4222C4.57008 12.8553 5.08568 13.0719 5.68378 13.0719C6.28187 13.0719 6.79747 12.8553 7.23057 12.4222L13.1084 6.54439C13.789 5.8638 14.1293 5.03885 14.1293 4.06952C14.1293 3.1002 13.789 2.27524 13.1084 1.59465C12.4278 0.914057 11.6028 0.573762 10.6335 0.573761C9.6642 0.573761 8.83924 0.914057 8.15865 1.59465L1.66211 8.09119C0.713405 9.03989 0.239054 10.1742 0.239054 11.4941C0.239055 12.8141 0.713405 13.9484 1.66211 14.8971C2.61081 15.8458 3.74513 16.3201 5.06506 16.3201C6.38499 16.3201 7.51931 15.8458 8.46801 14.8971Z" fill="#BDBDBD"/>
</svg>
