<svg width="30" height="31" viewBox="0 0 30 31" fill="none" xmlns="http://www.w3.org/2000/svg">
<path d="M3.75 10.2197V5.46973C3.75 5.27081 3.82902 5.08005 3.96967 4.9394C4.11032 4.79874 4.30109 4.71973 4.5 4.71973H11.75C11.9489 4.71973 12.1397 4.79874 12.2803 4.9394C12.421 5.08005 12.5 5.27081 12.5 5.46973V10.2197C12.5 10.4186 12.421 10.6094 12.2803 10.7501C12.1397 10.8907 11.9489 10.9697 11.75 10.9697H4.5C4.30109 10.9697 4.11032 10.8907 3.96967 10.7501C3.82902 10.6094 3.75 10.4186 3.75 10.2197V10.2197ZM17.5 26.4697V21.7197C17.5 21.5208 17.579 21.33 17.7197 21.1894C17.8603 21.0487 18.0511 20.9697 18.25 20.9697H25.5C25.6989 20.9697 25.8897 21.0487 26.0303 21.1894C26.171 21.33 26.25 21.5208 26.25 21.7197V26.4697C26.25 26.6686 26.171 26.8594 26.0303 27.0001C25.8897 27.1407 25.6989 27.2197 25.5 27.2197H18.25C18.0511 27.2197 17.8603 27.1407 17.7197 27.0001C17.579 26.8594 17.5 26.6686 17.5 26.4697V26.4697ZM17.5 16.4697V5.46973C17.5 5.27081 17.579 5.08005 17.7197 4.9394C17.8603 4.79874 18.0511 4.71973 18.25 4.71973H25.5C25.6989 4.71973 25.8897 4.79874 26.0303 4.9394C26.171 5.08005 26.25 5.27081 26.25 5.46973V16.4697C26.25 16.6686 26.171 16.8594 26.0303 17.0001C25.8897 17.1407 25.6989 17.2197 25.5 17.2197H18.25C18.0511 17.2197 17.8603 17.1407 17.7197 17.0001C17.579 16.8594 17.5 16.6686 17.5 16.4697V16.4697ZM3.75 26.4697V15.4697C3.75 15.2708 3.82902 15.08 3.96967 14.9394C4.11032 14.7987 4.30109 14.7197 4.5 14.7197H11.75C11.9489 14.7197 12.1397 14.7987 12.2803 14.9394C12.421 15.08 12.5 15.2708 12.5 15.4697V26.4697C12.5 26.6686 12.421 26.8594 12.2803 27.0001C12.1397 27.1407 11.9489 27.2197 11.75 27.2197H4.5C4.30109 27.2197 4.11032 27.1407 3.96967 27.0001C3.82902 26.8594 3.75 26.6686 3.75 26.4697V26.4697Z" stroke="black" stroke-width="1.5"/>
</svg>
