<svg width="30" height="30" viewBox="0 0 30 30" fill="none" xmlns="http://www.w3.org/2000/svg">
<g clip-path="url(#clip0_3232_1680)">
<path d="M18.061 16.1144C19.3224 16.1144 20.5548 16.3263 21.7205 16.7357C21.844 16.7785 21.9577 16.8453 22.0553 16.9323C22.1528 17.0193 22.2322 17.1247 22.2889 17.2425C22.3455 17.3603 22.3784 17.4881 22.3854 17.6186C22.3925 17.7491 22.3737 17.8797 22.3302 18.0029C22.2412 18.252 22.0571 18.4558 21.8182 18.5695C21.5793 18.6832 21.3051 18.6977 21.0556 18.6097C20.0933 18.2722 19.0807 18.1004 18.061 18.1016C13.0964 18.1016 9.07113 22.1037 9.07113 27.0421C9.07113 27.344 9.08564 27.6431 9.11613 27.9406C9.17129 28.4865 8.82871 28.9713 8.23935 29.0294C8.10743 29.0461 7.97348 29.0361 7.84551 28.9999C7.71755 28.9637 7.59818 28.9021 7.49453 28.8188C7.39089 28.7355 7.3051 28.6321 7.24227 28.5149C7.17945 28.3977 7.14088 28.2691 7.12887 28.1366C7.09228 27.7729 7.07388 27.4076 7.07371 27.0421C7.07371 21.0077 11.9932 16.1144 18.061 16.1144ZM10.9873 11.9323C11.5389 11.9323 11.986 12.3765 11.986 12.9252C11.9858 13.0561 11.9598 13.1856 11.9095 13.3065C11.8592 13.4273 11.7855 13.537 11.6928 13.6294C11.6 13.7218 11.4899 13.7949 11.3689 13.8447C11.2478 13.8945 11.1181 13.9199 10.9873 13.9195C6.02274 13.9195 1.99742 17.9216 1.99742 22.86C1.99742 23.1605 2.01193 23.461 2.04242 23.7571C2.05543 23.8875 2.04256 24.0191 2.00454 24.1445C1.96653 24.2698 1.90411 24.3864 1.82088 24.4876C1.73765 24.5888 1.63526 24.6725 1.51957 24.734C1.40388 24.7954 1.27719 24.8335 1.14677 24.8458C0.883866 24.8722 0.621244 24.7931 0.416574 24.626C0.211905 24.4589 0.0819197 24.2174 0.0551613 23.9545C0.0185768 23.5908 0.000166804 23.2255 0 22.86C0 16.8242 4.91951 11.9323 10.9873 11.9323ZM18.4355 4.30549C21.5623 4.30549 24.0968 6.82694 24.0968 9.93485C24.0968 13.0442 21.5623 15.5642 18.4355 15.5642C15.3102 15.5642 12.7756 13.0442 12.7756 9.93485C12.7756 6.82694 15.3102 4.30549 18.4369 4.30549H18.4355ZM18.4355 6.29275C17.9559 6.29161 17.4807 6.38494 17.0372 6.56743C16.5936 6.74991 16.1903 7.01798 15.8504 7.35631C15.5104 7.69464 15.2405 8.09663 15.0559 8.5393C14.8713 8.98198 14.7757 9.45668 14.7745 9.9363C14.7776 10.9044 15.1649 11.8317 15.8514 12.5144C16.5379 13.1971 17.4673 13.5793 18.4355 13.5769C18.9151 13.5783 19.3903 13.4851 19.8339 13.3028C20.2775 13.1205 20.6809 12.8526 21.021 12.5144C21.3611 12.1762 21.6312 11.7743 21.816 11.3317C22.0008 10.8891 22.0966 10.4145 22.0979 9.93485C22.0966 9.45522 22.0008 8.98056 21.816 8.53796C21.6312 8.09536 21.3611 7.69348 21.021 7.35528C20.6809 7.01708 20.2775 6.74918 19.8339 6.56687C19.3903 6.38456 18.9151 6.29141 18.4355 6.29275ZM11.4939 1.01904e-05C12.3623 -0.00163733 13.2194 0.196505 13.9989 0.579109C14.7785 0.961713 15.4596 1.51852 15.9895 2.20646C16.3234 2.64194 16.2421 3.26614 15.8037 3.60001C15.5933 3.76066 15.3278 3.83145 15.0653 3.7969C14.8028 3.76236 14.5646 3.62529 14.4029 3.41565C14.0602 2.97025 13.6195 2.60974 13.115 2.36204C12.6106 2.11434 12.0559 1.9861 11.4939 1.98727C11.0142 1.98593 10.5391 2.07908 10.0954 2.26139C9.65181 2.4437 9.24844 2.7116 8.90835 3.0498C8.56826 3.388 8.29812 3.78987 8.11335 4.23248C7.92857 4.67508 7.83278 5.14974 7.83145 5.62936C7.83145 7.38872 9.0958 8.88823 10.8131 9.20904C10.9458 9.22833 11.0732 9.27427 11.1878 9.3441C11.3023 9.41394 11.4015 9.50621 11.4794 9.61537C11.5573 9.72454 11.6123 9.84834 11.6412 9.97933C11.67 10.1103 11.672 10.2458 11.6471 10.3776C11.6222 10.5094 11.5709 10.6348 11.4963 10.7462C11.4217 10.8577 11.3253 10.9529 11.213 11.0261C11.1006 11.0993 10.9746 11.1491 10.8425 11.1723C10.7104 11.1956 10.575 11.1919 10.4444 11.1615C9.15134 10.9217 7.98279 10.2376 7.1409 9.22737C6.299 8.21714 5.83672 6.94441 5.83403 5.62936C5.83548 2.52001 8.36855 1.01904e-05 11.4968 1.01904e-05H11.4939Z" fill="black"/>
<path d="M14.5143 16.7357C15.68 16.3264 16.9124 16.1145 18.1738 16.1145C24.2416 16.1145 29.1611 21.0078 29.1611 27.0422C29.1609 27.4077 29.1425 27.773 29.1059 28.1367C29.0939 28.2692 29.0554 28.3978 28.9925 28.515C28.9297 28.6322 28.8439 28.7356 28.7403 28.8189C28.6366 28.9022 28.5173 28.9638 28.3893 29C28.2613 29.0362 28.1274 29.0462 27.9955 29.0295C27.4061 28.9714 27.0635 28.4866 27.1187 27.9407C27.1492 27.6432 27.1637 27.3441 27.1637 27.0422C27.1637 22.1038 23.1384 18.1017 18.1738 18.1017C17.1541 18.1005 16.1415 18.2723 15.1792 18.6098C14.9297 18.6978 14.6555 18.6833 14.4166 18.5696C14.1777 18.4559 13.9936 18.2521 13.9046 18.003C13.8611 17.8798 13.8423 17.7492 13.8494 17.6187C13.8565 17.4882 13.8893 17.3604 13.9459 17.2426C14.0026 17.1248 14.082 17.0194 14.1795 16.9324C14.2771 16.8454 14.3909 16.7786 14.5143 16.7357Z" fill="black"/>
</g>
<defs>
<clipPath id="clip0_3232_1680">
<rect width="30" height="30" fill="white"/>
</clipPath>
</defs>
</svg>
