<svg width="27" height="27" viewBox="0 0 27 27" fill="none" xmlns="http://www.w3.org/2000/svg">
<rect width="27" height="27" fill="#E5E5E5"/>
<g clip-path="url(#clip0_0_1)">
<rect width="891" height="442" transform="translate(-313 -241)" fill="white"/>
<path d="M26.3363 26.9332H0.663687C0.505343 26.9332 0.353484 26.8642 0.241518 26.7413C0.129552 26.6184 0.0666504 26.4517 0.0666504 26.2779V0.721932C0.0666504 0.54814 0.129552 0.381467 0.241518 0.258577C0.353484 0.135688 0.505343 0.0666504 0.663687 0.0666504H26.3363C26.4946 0.0666504 26.6465 0.135688 26.7584 0.258577C26.8704 0.381467 26.9333 0.54814 26.9333 0.721932V26.2779C26.9333 26.4517 26.8704 26.6184 26.7584 26.7413C26.6465 26.8642 26.4946 26.9332 26.3363 26.9332ZM1.26072 25.6226H25.7392V1.37721H1.26072V25.6226Z" fill="black"/>
<path d="M26.3363 9.56837H24.452C24.2937 9.56837 24.1418 9.49933 24.0298 9.37645C23.9179 9.25356 23.855 9.08688 23.855 8.91309C23.855 8.7393 23.9179 8.57263 24.0298 8.44974C24.1418 8.32685 24.2937 8.25781 24.452 8.25781H26.3363C26.4946 8.25781 26.6465 8.32685 26.7584 8.44974C26.8704 8.57263 26.9333 8.7393 26.9333 8.91309C26.9333 9.08688 26.8704 9.25356 26.7584 9.37645C26.6465 9.49933 26.4946 9.56837 26.3363 9.56837Z" fill="black"/>
<path d="M21.5599 9.56823H18.5748C18.4164 9.56823 18.2646 9.4992 18.1526 9.37631C18.0406 9.25342 17.9777 9.08674 17.9777 8.91295V0.721932C17.9777 0.54814 18.0406 0.381467 18.1526 0.258577C18.2646 0.135688 18.4164 0.0666504 18.5748 0.0666504C18.7331 0.0666504 18.885 0.135688 18.9969 0.258577C19.1089 0.381467 19.1718 0.54814 19.1718 0.721932V8.25767H21.5599C21.7183 8.25767 21.8701 8.32671 21.9821 8.4496C22.0941 8.57249 22.157 8.73916 22.157 8.91295C22.157 9.08674 22.0941 9.25342 21.9821 9.37631C21.8701 9.4992 21.7183 9.56823 21.5599 9.56823Z" fill="black"/>
<path d="M7.97738 11.0428H0.663687C0.505343 11.0428 0.353484 10.9737 0.241518 10.8508C0.129552 10.7279 0.0666504 10.5613 0.0666504 10.3875C0.0666504 10.2137 0.129552 10.047 0.241518 9.92413C0.353484 9.80124 0.505343 9.7322 0.663687 9.7322H7.38035V8.25782C7.38035 8.08403 7.44325 7.91735 7.55522 7.79447C7.66718 7.67158 7.81904 7.60254 7.97738 7.60254C8.13573 7.60254 8.28759 7.67158 8.39955 7.79447C8.51152 7.91735 8.57442 8.08403 8.57442 8.25782V10.3875C8.57442 10.5613 8.51152 10.7279 8.39955 10.8508C8.28759 10.9737 8.13573 11.0428 7.97738 11.0428Z" fill="black"/>
<path d="M7.97741 6.94711C7.81906 6.94711 7.66721 6.87807 7.55524 6.75518C7.44327 6.63229 7.38037 6.46562 7.38037 6.29183V5.19947C7.38037 5.02568 7.44327 4.85901 7.55524 4.73612C7.66721 4.61323 7.81906 4.54419 7.97741 4.54419C8.13575 4.54419 8.28761 4.61323 8.39958 4.73612C8.51155 4.85901 8.57445 5.02568 8.57445 5.19947V6.29183C8.57445 6.46562 8.51155 6.63229 8.39958 6.75518C8.28761 6.87807 8.13575 6.94711 7.97741 6.94711Z" fill="black"/>
<path d="M7.97741 3.23362C7.81906 3.23362 7.66721 3.16459 7.55524 3.0417C7.44327 2.91881 7.38037 2.75213 7.38037 2.57834V0.721932C7.38037 0.54814 7.44327 0.381466 7.55524 0.258577C7.66721 0.135688 7.81906 0.0666504 7.97741 0.0666504C8.13575 0.0666504 8.28761 0.135688 8.39958 0.258577C8.51155 0.381466 8.57445 0.54814 8.57445 0.721932V2.57834C8.57445 2.75213 8.51155 2.91881 8.39958 3.0417C8.28761 3.16459 8.13575 3.23362 7.97741 3.23362Z" fill="black"/>
<path d="M7.50453 18.7422H0.663687C0.505343 18.7422 0.353484 18.6732 0.241518 18.5503C0.129552 18.4274 0.0666504 18.2607 0.0666504 18.0869C0.0666504 17.9131 0.129552 17.7465 0.241518 17.6236C0.353484 17.5007 0.505343 17.4316 0.663687 17.4316H7.50453C7.66288 17.4316 7.81474 17.5007 7.9267 17.6236C8.03867 17.7465 8.10157 17.9131 8.10157 18.0869C8.10157 18.2607 8.03867 18.4274 7.9267 18.5503C7.81474 18.6732 7.66288 18.7422 7.50453 18.7422Z" fill="black"/>
<path d="M15.5897 18.7422H10.6641C10.5058 18.7422 10.3539 18.6732 10.2419 18.5503C10.13 18.4274 10.0671 18.2607 10.0671 18.0869C10.0671 17.9131 10.13 17.7465 10.2419 17.6236C10.3539 17.5007 10.5058 17.4316 10.6641 17.4316H15.5897C15.748 17.4316 15.8999 17.5007 16.0118 17.6236C16.1238 17.7465 16.1867 17.9131 16.1867 18.0869C16.1867 18.2607 16.1238 18.4274 16.0118 18.5503C15.8999 18.6732 15.748 18.7422 15.5897 18.7422Z" fill="black"/>
<path d="M19.7688 18.7422H18.5748C18.4164 18.7422 18.2646 18.6732 18.1526 18.5503C18.0406 18.4274 17.9777 18.2607 17.9777 18.0869C17.9777 17.9131 18.0406 17.7465 18.1526 17.6236C18.2646 17.5007 18.4164 17.4316 18.5748 17.4316H19.7688C19.9272 17.4316 20.079 17.5007 20.191 17.6236C20.303 17.7465 20.3659 17.9131 20.3659 18.0869C20.3659 18.2607 20.303 18.4274 20.191 18.5503C20.079 18.6732 19.9272 18.7422 19.7688 18.7422Z" fill="black"/>
<path d="M26.3363 18.7422H22.157C21.9987 18.7422 21.8468 18.6732 21.7349 18.5503C21.6229 18.4274 21.56 18.2607 21.56 18.0869C21.56 17.9131 21.6229 17.7465 21.7349 17.6236C21.8468 17.5007 21.9987 17.4316 22.157 17.4316H26.3363C26.4946 17.4316 26.6465 17.5007 26.7585 17.6236C26.8704 17.7465 26.9333 17.9131 26.9333 18.0869C26.9333 18.2607 26.8704 18.4274 26.7585 18.5503C26.6465 18.6732 26.4946 18.7422 26.3363 18.7422Z" fill="black"/>
<path d="M13.5 26.9332C13.3416 26.9332 13.1898 26.8642 13.0778 26.7413C12.9659 26.6184 12.903 26.4517 12.903 26.2779V18.0869C12.903 17.9131 12.9659 17.7465 13.0778 17.6236C13.1898 17.5007 13.3416 17.4316 13.5 17.4316C13.6583 17.4316 13.8102 17.5007 13.9222 17.6236C14.0341 17.7465 14.097 17.9131 14.097 18.0869V26.2779C14.097 26.4517 14.0341 26.6184 13.9222 26.7413C13.8102 26.8642 13.6583 26.9332 13.5 26.9332Z" fill="black"/>
</g>
<defs>
<clipPath id="clip0_0_1">
<rect width="891" height="442" fill="white" transform="translate(-313 -241)"/>
</clipPath>
</defs>
</svg>
